# xmcd
#
# Track frame offsets:
#	150
#	18381
#	35991
#	50735
#	74385
#	95678
#	115833
#	134444
#	152217
#	177230
#	195865
#	224693
#
# Disc length: 3295 seconds
# Revision: 0
# Processed by: cddbd v1.5.2PL0 Copyright (c) Steve Scherf et al.
# Submitted via: dBpowerAMP V12.0
#
DISCID=b50cdd0c
DTITLE=Crosby Loggins and the Light - We All Co Home
DYEAR=2007
DGENRE=Country
TTITLE0=Good Enough
TTITLE1=Always Catching Up
TTITLE2=Rock Into Sand
TTITLE3=Man in the Middle
TTITLE4=March On, America
TTITLE5=Here She Comes
TTITLE6=Wanna Be You
TTITLE7=Radio Song
TTITLE8=Angel of Mercy
TTITLE9=Couldn't Save Me
TTITLE10=We All Go Home
TTITLE11=Same Old Song (La, La, La)
EXTD=
EXTT0=
EXTT1=
EXTT2=
EXTT3=
EXTT4=
EXTT5=
EXTT6=
EXTT7=
EXTT8=
EXTT9=
EXTT10=
EXTT11=
PLAYORDER=
